<?xml version="1.0" encoding="UTF-8"?>
<svg xmlns="http://www.w3.org/2000/svg" xmlns:xlink="http://www.w3.org/1999/xlink" viewBox="0 0 48 48" width="22px" height="22px">
<g id="surface1066164">
<rect x="0" y="0" width="48" height="48" style="fill:rgb(21.960784%,32.941177%,60.000002%);fill-opacity:1;stroke:none;"/>
<path style=" stroke:none;fill-rule:nonzero;fill:rgb(100%,100%,100%);fill-opacity:1;" d="M 42 11.5 L 42 36.5 C 42 39.53125 39.53125 42 36.5 42 L 31 42 L 31 28 L 34.621094 28 C 35.128906 28 35.558594 27.621094 35.621094 27.121094 L 35.988281 24.121094 C 36.03125 23.839844 35.941406 23.550781 35.75 23.339844 C 35.558594 23.121094 35.289062 23 35 23 L 31 23 L 31 19.5 C 31 18.398438 31.898438 17.5 33 17.5 L 35 17.5 C 35.550781 17.5 36 17.050781 36 16.5 L 36 13.121094 C 36 12.609375 35.601562 12.179688 35.089844 12.128906 C 35.03125 12.121094 33.621094 12 31.828125 12 C 27.429688 12 25 14.621094 25 19.371094 L 25 23 L 21 23 C 20.449219 23 20 23.449219 20 24 L 20 27 C 20 27.550781 20.449219 28 21 28 L 25 28 L 25 42 L 11.5 42 C 8.46875 42 6 39.53125 6 36.5 L 6 11.5 C 6 8.46875 8.46875 6 11.5 6 L 36.5 6 C 39.53125 6 42 8.46875 42 11.5 Z M 42 11.5 "/>
</g>
</svg>
