<?xml version="1.0" encoding="UTF-8"?>
<svg xmlns="http://www.w3.org/2000/svg" xmlns:xlink="http://www.w3.org/1999/xlink" viewBox="0 0 48 48" width="33px" height="33px">
<g id="surface703292">
<path style=" stroke:none;fill-rule:nonzero;fill:rgb(58.431375%,64.705884%,65.098041%);fill-opacity:1;" d="M 41 43 L 7 43 L 7 28 L 11 28 L 11 39 L 37 39 L 37 28 L 41 28 Z M 41 43 "/>
<path style=" stroke:none;fill-rule:nonzero;fill:rgb(90.196079%,49.411765%,13.333334%);fill-opacity:1;" d="M 14 32 L 34 32 L 34 36 L 14 36 Z M 14 32 "/>
<path style=" stroke:none;fill-rule:nonzero;fill:rgb(90.196079%,49.411765%,13.333334%);fill-opacity:1;" d="M 15.046875 26.554688 L 15.921875 22.652344 L 34.4375 26.800781 L 33.5625 30.703125 Z M 15.046875 26.554688 "/>
<path style=" stroke:none;fill-rule:nonzero;fill:rgb(90.196079%,49.411765%,13.333334%);fill-opacity:1;" d="M 17.378906 17.800781 L 19.121094 14.199219 L 36.246094 22.480469 L 34.503906 26.082031 Z M 17.378906 17.800781 "/>
<path style=" stroke:none;fill-rule:nonzero;fill:rgb(90.196079%,49.411765%,13.333334%);fill-opacity:1;" d="M 21.917969 9.53125 L 24.496094 6.472656 L 39.039062 18.722656 L 36.460938 21.78125 Z M 21.917969 9.53125 "/>
<path style=" stroke:none;fill-rule:nonzero;fill:rgb(90.196079%,49.411765%,13.333334%);fill-opacity:1;" d="M 28.402344 2.703125 L 31.597656 0.296875 L 43.097656 15.546875 L 39.902344 17.953125 Z M 28.402344 2.703125 "/>
<path style=" stroke:none;fill-rule:nonzero;fill:rgb(58.431375%,64.705884%,65.098041%);fill-opacity:1;" d="M 7 39 L 11 39 L 11 43 L 7 43 Z M 7 39 "/>
<path style=" stroke:none;fill-rule:nonzero;fill:rgb(58.431375%,64.705884%,65.098041%);fill-opacity:1;" d="M 37 39 L 41 39 L 41 43 L 37 43 Z M 37 39 "/>
</g>
</svg>
